<svg xmlns="http://www.w3.org/2000/svg" width="22.584" height="22.584" viewBox="0 0 22.584 22.584"><defs><style>.a{fill:#fff;}.b{fill:#255aa9;}</style></defs><path class="a" d="M5.547,22.54V17.17H0V0H16.993V5.371H22.54V22.54Z" transform="translate(0.044 0.044)"/><path class="b" d="M6188.406,3984.836c.062,0,1.7,4.039,7.769,6.135.124-.37.678-2,.678-2l2.682,5.3-5.3,2.713.616-1.819S6188.036,3991.557,6188.406,3984.836Z" transform="translate(-6181.797 -3979.347)"/><path class="b" d="M0-40.174c0,1.724,1.784,4.289,1.784,4.289l-.023,2.921H0Z" transform="translate(5.679 48.417)"/><path class="b" d="M0,7.226C0,5.5,1.784,2.933,1.784,2.933V0L0,.016Z" transform="translate(15.321 5.474) rotate(90)"/><path class="b" d="M5.591,22.584V17.213H.044V1.937H0V0H17.081V5.415h5.5V22.584Zm15.144-1.849V7.264H15.188V7.22h-.044V1.937H1.893V15.364H7.44v5.371Z"/></svg>