<svg xmlns="http://www.w3.org/2000/svg" width="14.875" height="16.528" viewBox="0 0 14.875 16.528"><defs><style>.a{fill:#255aa9;}</style></defs><path class="a" d="M9.458,10.438H7.806V12.09H9.458Zm3.306,0H11.111V12.09h1.653Zm3.306,0H14.417V12.09H16.07Zm1.653-5.785H16.9V3H15.243V4.653H8.632V3H6.979V4.653H6.153A1.645,1.645,0,0,0,4.508,6.306L4.5,17.875a1.652,1.652,0,0,0,1.653,1.653h11.57a1.658,1.658,0,0,0,1.653-1.653V6.306A1.658,1.658,0,0,0,17.722,4.653Zm0,13.222H6.153V8.785h11.57Z" transform="translate(-4.5 -3)"/></svg>