<svg xmlns="http://www.w3.org/2000/svg" width="20" height="20" viewBox="0 0 20 20"><defs><style>.a{fill:#255aa9;}</style></defs><path class="a" d="M19.683,9.041,10.433.174a.625.625,0,0,0-.865,0L.308,9.05A1.056,1.056,0,0,0,0,9.792a1.043,1.043,0,0,0,1.042,1.042H2.5V18.75A1.25,1.25,0,0,0,3.75,20H7.292a.625.625,0,0,0,.625-.625V13.959a.209.209,0,0,1,.208-.208h3.75a.209.209,0,0,1,.208.208v5.417a.625.625,0,0,0,.625.625H16.25a1.25,1.25,0,0,0,1.25-1.25V10.834h1.458A1.043,1.043,0,0,0,20,9.792,1.064,1.064,0,0,0,19.683,9.041Z" transform="translate(0 0)"/></svg>