<svg xmlns="http://www.w3.org/2000/svg" width="30" height="30" viewBox="0 0 30 30"><defs><style>.a{fill:#255aa9;}</style></defs><g transform="translate(7.5 14.375)"><path class="a" d="M20.375,12.75H6.625a.625.625,0,0,1,0-1.25h13.75a.625.625,0,0,1,0,1.25Z" transform="translate(-6 -11.5)"/></g><g transform="translate(14.375 7.5)"><path class="a" d="M12.125,21a.625.625,0,0,1-.625-.625V6.625a.625.625,0,0,1,1.25,0v13.75A.625.625,0,0,1,12.125,21Z" transform="translate(-11.5 -6)"/></g><path class="a" d="M26.875,30H3.125A3.129,3.129,0,0,1,0,26.875V3.125A3.129,3.129,0,0,1,3.125,0h23.75A3.129,3.129,0,0,1,30,3.125v23.75A3.129,3.129,0,0,1,26.875,30ZM3.125,1.25A1.877,1.877,0,0,0,1.25,3.125v23.75A1.877,1.877,0,0,0,3.125,28.75h23.75a1.877,1.877,0,0,0,1.875-1.875V3.125A1.877,1.877,0,0,0,26.875,1.25Z"/></svg>