<svg xmlns="http://www.w3.org/2000/svg" width="30" height="30" viewBox="0 0 30 30"><defs><style>.a{fill:#255aa9;}</style></defs><g transform="translate(0 7.5)"><path class="a" d="M26.875,21h-2.5a.625.625,0,1,1,0-1.25h2.5a1.877,1.877,0,0,0,1.875-1.875V9.125A1.877,1.877,0,0,0,26.875,7.25H3.125A1.877,1.877,0,0,0,1.25,9.125v8.75A1.877,1.877,0,0,0,3.125,19.75h2.5a.625.625,0,1,1,0,1.25h-2.5A3.129,3.129,0,0,1,0,17.875V9.125A3.129,3.129,0,0,1,3.125,6h23.75A3.129,3.129,0,0,1,30,9.125v8.75A3.129,3.129,0,0,1,26.875,21Z" transform="translate(0 -6)"/></g><g transform="translate(23.75 10)"><path class="a" d="M20.875,11.75A1.875,1.875,0,1,1,22.75,9.875,1.877,1.877,0,0,1,20.875,11.75Zm0-2.5a.625.625,0,1,0,.625.625A.626.626,0,0,0,20.875,9.25Z" transform="translate(-19 -8)"/></g><g transform="translate(5 16.25)"><path class="a" d="M20.875,26.75H7.125A3.129,3.129,0,0,1,4,23.625v-10A.625.625,0,0,1,4.625,13h18.75a.625.625,0,0,1,.625.625v10A3.129,3.129,0,0,1,20.875,26.75ZM5.25,14.25v9.375A1.877,1.877,0,0,0,7.125,25.5h13.75a1.877,1.877,0,0,0,1.875-1.875V14.25Z" transform="translate(-4 -13)"/></g><g transform="translate(8.75 21.25)"><path class="a" d="M18.875,18.25H7.625a.625.625,0,0,1,0-1.25h11.25a.625.625,0,1,1,0,1.25Z" transform="translate(-7 -17)"/></g><g transform="translate(8.75 25)"><path class="a" d="M18.875,21.25H7.625a.625.625,0,0,1,0-1.25h11.25a.625.625,0,0,1,0,1.25Z" transform="translate(-7 -20)"/></g><g transform="translate(5)"><path class="a" d="M23.375,8.75a.625.625,0,0,1-.625-.625V5.616a3.109,3.109,0,0,0-.915-2.21L20.6,2.166a3.144,3.144,0,0,0-2.21-.916H7.125A1.877,1.877,0,0,0,5.25,3.125v5a.625.625,0,1,1-1.25,0v-5A3.129,3.129,0,0,1,7.125,0h11.26a4.408,4.408,0,0,1,3.094,1.281l1.24,1.24A4.352,4.352,0,0,1,24,5.616V8.125A.625.625,0,0,1,23.375,8.75Z" transform="translate(-4)"/></g></svg>