<svg xmlns="http://www.w3.org/2000/svg" width="30" height="30" viewBox="0 0 30 30"><defs><style>.a{fill:#a92425;}</style></defs><g transform="translate(2.727 8.75)"><path class="a" d="M24.136,28.25H6.409A3.281,3.281,0,0,1,3,25.125V7.625A.656.656,0,0,1,3.682,7a.656.656,0,0,1,.682.625v17.5A1.968,1.968,0,0,0,6.409,27H24.136a1.968,1.968,0,0,0,2.045-1.875V7.625a.684.684,0,0,1,1.364,0v17.5A3.281,3.281,0,0,1,24.136,28.25Z" transform="translate(-3 -7)"/></g><g transform="translate(0 3.75)"><path class="a" d="M30.318,9.25H1.682A.656.656,0,0,1,1,8.625v-2.5A3.281,3.281,0,0,1,4.409,3H27.591A3.281,3.281,0,0,1,31,6.125v2.5A.656.656,0,0,1,30.318,9.25ZM2.364,8H29.636V6.125A1.968,1.968,0,0,0,27.591,4.25H4.409A1.968,1.968,0,0,0,2.364,6.125Z" transform="translate(-1 -3)"/></g><g transform="translate(8.182)"><path class="a" d="M19.955,5a.656.656,0,0,1-.682-.625v-2.5a.656.656,0,0,0-.682-.625H9.045a.656.656,0,0,0-.682.625v2.5A.684.684,0,0,1,7,4.375v-2.5A1.968,1.968,0,0,1,9.045,0h9.545a1.968,1.968,0,0,1,2.045,1.875v2.5A.656.656,0,0,1,19.955,5Z" transform="translate(-7)"/></g><g transform="translate(14.318 13.75)"><path class="a" d="M12.182,22.25a.656.656,0,0,1-.682-.625v-10a.684.684,0,0,1,1.364,0v10A.656.656,0,0,1,12.182,22.25Z" transform="translate(-11.5 -11)"/></g><g transform="translate(8.182 13.75)"><path class="a" d="M7.682,22.25A.656.656,0,0,1,7,21.625v-10a.684.684,0,0,1,1.364,0v10A.656.656,0,0,1,7.682,22.25Z" transform="translate(-7 -11)"/></g><g transform="translate(20.455 13.75)"><path class="a" d="M16.682,22.25A.656.656,0,0,1,16,21.625v-10a.684.684,0,0,1,1.364,0v10A.656.656,0,0,1,16.682,22.25Z" transform="translate(-16 -11)"/></g></svg>