<svg xmlns="http://www.w3.org/2000/svg" width="30" height="30" viewBox="0 0 30 30"><defs><style>.a{fill:#255aa9;}</style></defs><g transform="translate(8.182 28.503)"><path class="a" d="M29.136,22.5H8.682a.752.752,0,0,1,0-1.5H29.136a.752.752,0,0,1,0,1.5Z" transform="translate(-8 -21)"/></g><path class="a" d="M2.682,31.954a.658.658,0,0,1-.483-.219.8.8,0,0,1-.181-.7L3.5,24.114a.769.769,0,0,1,.181-.358L22.971,2.59a1.963,1.963,0,0,1,2.892,0l2.892,3.174a2.405,2.405,0,0,1,0,3.176L9.471,30.1a.654.654,0,0,1-.326.2L2.839,31.934a.565.565,0,0,1-.157.021Zm2.105-7.293L3.6,30.2l5.045-1.305L27.791,7.88a.779.779,0,0,0,.2-.53.789.789,0,0,0-.2-.53L24.9,3.646a.654.654,0,0,0-.964,0Zm4.2,4.913H9Z" transform="translate(-1.999 -1.954)"/><g transform="translate(16.165 5.472)"><path class="a" d="M19.356,12.4a.655.655,0,0,1-.483-.219l-4.82-5.292a.8.8,0,0,1,0-1.058.64.64,0,0,1,.964,0l4.822,5.292a.8.8,0,0,1,0,1.058A.65.65,0,0,1,19.356,12.4Z" transform="translate(-13.854 -5.611)"/></g></svg>