<svg xmlns="http://www.w3.org/2000/svg" width="18.024" height="16.945" viewBox="0 0 18.024 16.945"><defs><style>.a{fill:#255aa9;}</style></defs><path class="a" d="M210.774,210.88H201.43a2.612,2.612,0,0,1,0,3.177h9.344a1.588,1.588,0,0,0,0-3.177Z" transform="translate(-194.339 -203.867)"/><path class="a" d="M1.588,214.057H2.931a2.612,2.612,0,0,1,0-3.177H1.588a1.588,1.588,0,1,0,0,3.177Z" transform="translate(0 -203.867)"/><circle class="a" cx="1.562" cy="1.562" r="1.562" transform="translate(3.449 7.039)"/><path class="a" d="M320.413,392.5h-5.344a2.611,2.611,0,0,1,0,3.177h5.344a1.588,1.588,0,0,0,0-3.177Z" transform="translate(-303.978 -379.094)"/><path class="a" d="M1.588,392.5a1.588,1.588,0,0,0,0,3.177H6.932a2.612,2.612,0,0,1,0-3.177Z" transform="translate(0 -379.094)"/><circle class="a" cx="1.562" cy="1.562" r="1.562" transform="translate(6.972 14.059) rotate(-22.514)"/><path class="a" d="M1.588,32.427h9.1a2.611,2.611,0,0,1,0-3.177h-9.1a1.588,1.588,0,0,0,0,3.177Z" transform="translate(0 -28.631)"/><path class="a" d="M423.368,32.427a1.588,1.588,0,0,0,0-3.177H421.78a2.611,2.611,0,0,1,0,3.177Z" transform="translate(-406.932 -28.631)"/><circle class="a" cx="1.562" cy="1.562" r="1.562" transform="translate(10.561 2.267) rotate(-45)"/></svg>