<svg xmlns="http://www.w3.org/2000/svg" width="25" height="25" viewBox="0 0 25 25"><defs><style>.a,.c{fill:none;}.b{fill:#255aa9;}.c{stroke:#255aa9;stroke-linecap:round;stroke-width:2px;}</style></defs><rect class="a" width="25" height="25"/><g transform="translate(7.609 12.152)"><path class="b" d="M15.583,12.333H6.417a.417.417,0,1,1,0-.833h9.167a.417.417,0,0,1,0,.833Z" transform="translate(-6 -11.5)"/></g><g transform="translate(2.609 2.569)"><path class="b" d="M17.917,20H2.083A2.086,2.086,0,0,1,0,17.917V2.083A2.086,2.086,0,0,1,2.083,0H17.917A2.086,2.086,0,0,1,20,2.083V17.917A2.086,2.086,0,0,1,17.917,20ZM2.083.833a1.252,1.252,0,0,0-1.25,1.25V17.917a1.252,1.252,0,0,0,1.25,1.25H17.917a1.252,1.252,0,0,0,1.25-1.25V2.083a1.252,1.252,0,0,0-1.25-1.25Z"/></g><line class="c" x1="11.294" transform="translate(6.775 12.702)"/><line class="c" x1="11.294" transform="translate(12.422 7.055) rotate(90)"/></svg>