<svg xmlns="http://www.w3.org/2000/svg" width="25" height="25" viewBox="0 0 25 25"><defs><style>.a,.b{fill:none;}.b{stroke:#255aa9;stroke-linecap:round;stroke-width:2px;}.c{fill:#255aa9;}</style></defs><rect class="a" width="25" height="25"/><g transform="translate(-1805.834 -82)"><line class="b" x1="11.294" transform="translate(1812.609 99.235)"/><line class="b" x1="11.294" transform="translate(1812.609 94.469)"/><line class="b" x1="11.294" transform="translate(1812.609 89.702)"/></g><g transform="translate(-25.391 2.569)"><g transform="translate(28 0)"><path class="c" d="M17.917,20H2.083A2.086,2.086,0,0,1,0,17.917V2.083A2.086,2.086,0,0,1,2.083,0H17.917A2.086,2.086,0,0,1,20,2.083V17.917A2.086,2.086,0,0,1,17.917,20ZM2.083.833a1.252,1.252,0,0,0-1.25,1.25V17.917a1.252,1.252,0,0,0,1.25,1.25H17.917a1.252,1.252,0,0,0,1.25-1.25V2.083a1.252,1.252,0,0,0-1.25-1.25Z"/></g></g></svg>