<svg xmlns="http://www.w3.org/2000/svg" width="20" height="20" viewBox="0 0 20 20"><defs><style>.a{fill:none;stroke:#255aa9;stroke-linecap:round;stroke-width:2px;}.b{fill:#255aa9;}</style></defs><line class="a" y1="8" x2="8" transform="translate(7.891 5.931)"/><line class="a" x1="2.915" y1="3" transform="translate(4.891 10.931)"/><path class="b" d="M17.917,20H2.083A2.086,2.086,0,0,1,0,17.917V2.083A2.086,2.086,0,0,1,2.083,0H17.917A2.086,2.086,0,0,1,20,2.083V17.917A2.086,2.086,0,0,1,17.917,20ZM2.083.833a1.252,1.252,0,0,0-1.25,1.25V17.917a1.252,1.252,0,0,0,1.25,1.25H17.917a1.252,1.252,0,0,0,1.25-1.25V2.083a1.252,1.252,0,0,0-1.25-1.25Z"/></svg>