<svg xmlns="http://www.w3.org/2000/svg" width="32" height="32" viewBox="0 0 32 32"><defs><style>.a{fill:#4a8d6e;}</style></defs><path class="a" d="M2.259,44.027A11.813,11.813,0,0,0,8.04,53.969.941.941,0,0,1,8.1,55.578l-.017.012a1.224,1.224,0,0,1-1.331.037A13.779,13.779,0,0,1,0,44.027c0-7.781,7.2-14.1,15.892-14.164v2.02c-7.44.066-13.633,5.478-13.633,12.144Zm0,0" transform="translate(0 -27.996)"/><path class="a" d="M225.259.06,229.41,2.6a.323.323,0,0,1,0,.565L225.259,5.7a.387.387,0,0,1-.6-.282V.343a.387.387,0,0,1,.6-.283Zm0,0" transform="translate(-208.952 0)"/><path class="a" d="M244.184,78.831a11.813,11.813,0,0,0-5.782-9.943.941.941,0,0,1-.057-1.608l.017-.012a1.224,1.224,0,0,1,1.331-.037,13.778,13.778,0,0,1,6.75,11.6c0,7.781-7.193,14.1-15.88,14.164v-2.02c7.44-.066,13.621-5.478,13.621-12.144Zm0,0" transform="translate(-214.442 -62.862)"/><path class="a" d="M167.019,425.5l-4.151-2.538a.323.323,0,0,1,0-.565l4.151-2.538a.387.387,0,0,1,.6.282v5.077A.387.387,0,0,1,167.019,425.5Zm0,0" transform="translate(-151.326 -393.562)"/><path class="a" d="M133.47,188.031l-6.8,5.041-1.714,1.271a2.425,2.425,0,0,1-1.435.461,2.528,2.528,0,0,1-.261-.013,2.318,2.318,0,0,1-1.531-.789l-2.644-3.151a1.5,1.5,0,0,1,.361-2.257,1.948,1.948,0,0,1,2.524.323l1.785,2.128.014-.01,7.4-5.485a1.954,1.954,0,0,1,2.539.212,1.5,1.5,0,0,1-.237,2.27Zm0,0" transform="translate(-110.424 -173.605)"/><path class="a" d="M200.584,188.031l-6.8,5.041a9.06,9.06,0,0,1-2.9-2.037l7.4-5.485a1.954,1.954,0,0,1,2.539.212A1.5,1.5,0,0,1,200.584,188.031Zm0,0" transform="translate(-177.537 -173.605)"/></svg>