<svg xmlns="http://www.w3.org/2000/svg" width="17.86" height="21.407" viewBox="0 0 17.86 21.407"><defs><style>.a{fill:#255aa9;}</style></defs><path class="a" d="M92.188,10.312A4.989,4.989,0,0,0,95.834,8.8a4.989,4.989,0,0,0,1.51-3.646A4.99,4.99,0,0,0,95.833,1.51a5.155,5.155,0,0,0-7.291,0,4.989,4.989,0,0,0-1.511,3.645A4.989,4.989,0,0,0,88.542,8.8,4.99,4.99,0,0,0,92.188,10.312Zm0,0" transform="translate(-83.393 0)"/><path class="a" d="M17.817,253.437a12.736,12.736,0,0,0-.173-1.353,10.658,10.658,0,0,0-.333-1.36,6.717,6.717,0,0,0-.559-1.268,4.786,4.786,0,0,0-.843-1.1A3.717,3.717,0,0,0,14.7,247.6a4.185,4.185,0,0,0-1.546-.28,1.569,1.569,0,0,0-.838.355c-.251.164-.545.353-.873.563a5,5,0,0,1-1.13.5,4.386,4.386,0,0,1-2.763,0,4.99,4.99,0,0,1-1.129-.5c-.325-.208-.619-.4-.874-.563a1.567,1.567,0,0,0-.838-.355,4.18,4.18,0,0,0-1.546.28,3.714,3.714,0,0,0-1.211.761,4.787,4.787,0,0,0-.843,1.1,6.73,6.73,0,0,0-.559,1.269,10.683,10.683,0,0,0-.333,1.36,12.691,12.691,0,0,0-.173,1.353c-.028.41-.043.835-.043,1.264a3.555,3.555,0,0,0,1.056,2.689,3.8,3.8,0,0,0,2.72.992H14.084a3.8,3.8,0,0,0,2.72-.992A3.553,3.553,0,0,0,17.86,254.7c0-.431-.015-.857-.043-1.264Zm0,0" transform="translate(0 -236.976)"/></svg>