<svg xmlns="http://www.w3.org/2000/svg" width="178.092" height="21.635" viewBox="0 0 178.092 21.635"><defs><style>.a{fill:#255aa9;}.b{fill:#a92425;}.c{fill:#39c;}</style></defs><path class="a" d="M328.583,522.729h-9.044V501.834h9.044q10.964,0,10.964,10.442T328.583,522.729Zm-2.339-15.882v10.872h2.223q4.21,0,4.209-4.525V511.37q0-4.525-4.209-4.523Zm35.187,15.882H343.16V501.834h18.064v5.013H349.867v2.879h9.724v4.8h-9.724v3.189h11.565Zm2.7-7.076h6.348a2.332,2.332,0,0,0,.826,2.108,4.75,4.75,0,0,0,2.545.535c.385,0,.715-.013.99-.037a5.831,5.831,0,0,0,.917-.164,1.474,1.474,0,0,0,.773-.431,1.117,1.117,0,0,0,.267-.76,1.039,1.039,0,0,0-.419-.826,3.327,3.327,0,0,0-1.135-.566q-.711-.212-1.64-.406t-1.95-.419q-1.019-.231-2.034-.528a10.021,10.021,0,0,1-1.944-.8,7.771,7.771,0,0,1-1.64-1.161,4.781,4.781,0,0,1-1.136-1.705,6.227,6.227,0,0,1-.419-2.345,6.118,6.118,0,0,1,.753-3.085,5.629,5.629,0,0,1,2.083-2.09,10.517,10.517,0,0,1,2.964-1.142,16.193,16.193,0,0,1,3.571-.369,15.655,15.655,0,0,1,3.566.383,9.994,9.994,0,0,1,2.9,1.16,5.737,5.737,0,0,1,2,2.023,5.814,5.814,0,0,1,.765,2.885v.359h-6.293v-.122a1.966,1.966,0,0,0-.662-1.512,2.945,2.945,0,0,0-2.035-.607,4.347,4.347,0,0,0-2.046.4,1.129,1.129,0,0,0-.73.973,1.1,1.1,0,0,0,.419.849,3.048,3.048,0,0,0,1.124.584q.716.223,1.627.413t1.925.4q1.014.219,2.035.5a10.631,10.631,0,0,1,1.937.753,7.709,7.709,0,0,1,1.647,1.086,4.523,4.523,0,0,1,1.16,1.6,5.7,5.7,0,0,1,.468,2.223,7.781,7.781,0,0,1-.461,2.75,5.977,5.977,0,0,1-1.269,2.06,6.892,6.892,0,0,1-1.968,1.4,9.955,9.955,0,0,1-2.54.821,15.988,15.988,0,0,1-2.97.261,24.852,24.852,0,0,1-3.328-.2,12.669,12.669,0,0,1-2.818-.712,6.809,6.809,0,0,1-2.241-1.341,5.722,5.722,0,0,1-1.415-2.145A8.2,8.2,0,0,1,364.127,515.653Zm29.574,7.076H387V501.834H393.7v8.929l7.441-8.929h8.321l-7.507,8.6,7.654,12.294h-7.921l-4.342-7.653-3.645,2.981Z" transform="translate(-298.129 -501.465)"/><path class="b" d="M563.321,523.258h-18.27v-20.9h18.064v5.013h-11.36v2.879h9.726v4.8h-9.726v3.189h11.565Zm10.35,0h-6.705v-20.9h12.786a8.521,8.521,0,0,1,3.055.522,5.924,5.924,0,0,1,2.217,1.4,6.388,6.388,0,0,1,1.312,2.04,6.5,6.5,0,0,1,.461,2.442,6.106,6.106,0,0,1-1.038,3.457,6,6,0,0,1-3,2.282l4.641,8.747h-7.531l-3.711-7.622h-2.491Zm0-16.12v3.857h4.4a1.8,1.8,0,0,0,1.335-.559,1.888,1.888,0,0,0,.548-1.385,1.848,1.848,0,0,0-.548-1.372,1.823,1.823,0,0,0-1.335-.541Zm23.622,16.12h-6.7v-20.9H602.3a6.4,6.4,0,0,1,4.816,1.944,6.8,6.8,0,0,1,1.872,4.921v.389a6.856,6.856,0,0,1-1.872,4.938,6.383,6.383,0,0,1-4.816,1.955h-5.011Zm0-15.944v4.318h2.776a2.145,2.145,0,0,0,1.579-.539,2.041,2.041,0,0,0,.54-1.507v-.238a2.046,2.046,0,0,0-.529-1.5,2.149,2.149,0,0,0-1.59-.533Z" transform="translate(-430.9 -501.994)"/><path class="c" d="M267.477,521.661q0-4.123,2.4-6.249a9.635,9.635,0,0,1,6.615-2.127q4.421,0,6.729,2.067t2.313,6.309V522.7H273.508a3.894,3.894,0,0,0,.764,2.606,3.1,3.1,0,0,0,2.455.88,3.288,3.288,0,0,0,2.241-.638,2.16,2.16,0,0,0,.711-1.688h5.854a5.357,5.357,0,0,1-2.2,4.556q-2.211,1.638-6.469,1.64a10.383,10.383,0,0,1-6.924-2.09Q267.476,525.877,267.477,521.661Zm6.061-1.821h5.9a2.667,2.667,0,0,0-.723-1.981,2.694,2.694,0,0,0-1.992-.716A2.83,2.83,0,0,0,273.538,519.839Z" transform="translate(-267.477 -508.424)"/></svg>